<?xml version="1.0" standalone="no"?>
<!DOCTYPE svg PUBLIC "-//W3C//DTD SVG 20010904//EN"
 "http://www.w3.org/TR/2001/REC-SVG-20010904/DTD/svg10.dtd">
<svg version="1.0" xmlns="http://www.w3.org/2000/svg"
 width="300.000000pt" height="300.000000pt" viewBox="0 0 300.000000 300.000000"
 preserveAspectRatio="xMidYMid meet">
<metadata>
Created by potrace 1.11, written by Peter Selinger 2001-2013
</metadata>
<g transform="translate(0.000000,300.000000) scale(0.100000,-0.100000)"
fill="#000000" stroke="none">
<path d="M1132 2374 c-183 -219 -332 -401 -332 -406 0 -4 302 -8 670 -8 369 0
670 3 670 6 0 4 -24 35 -52 69 -55 65 -74 87 -404 490 -108 132 -202 241 -209
243 -6 1 -161 -176 -343 -394z m291 -26 c37 -44 13 -85 -98 -175 l-40 -32 63
-1 c55 0 62 -2 62 -20 0 -19 -7 -20 -101 -20 -88 0 -100 2 -95 16 3 9 6 19 6
23 0 4 19 22 43 39 24 17 58 44 75 60 64 60 25 122 -56 90 -39 -15 -39 -15
-34 9 3 15 13 25 31 29 14 3 31 7 36 10 25 9 91 -8 108 -28z m227 17 c42 -22
63 -69 64 -142 1 -48 -4 -68 -20 -89 -27 -36 -71 -48 -121 -32 -66 22 -102
130 -72 217 19 55 90 77 149 46z"/>
<path d="M1564 2315 c-31 -47 -1 -177 42 -183 11 -2 27 4 34 13 16 19 14 128
-3 164 -17 36 -51 39 -73 6z"/>
<path d="M1600 2693 c0 -4 71 -94 158 -199 86 -105 204 -249 262 -320 58 -71
121 -146 141 -168 l36 -39 171 78 c95 43 172 82 172 85 0 3 -172 109 -382 235
-211 126 -401 241 -423 255 -71 47 -135 81 -135 73z m536 -453 c38 -22 77 -40
86 -40 27 0 21 25 -13 54 -17 14 -24 26 -17 26 16 0 56 -40 83 -82 l17 -28
-27 0 c-14 0 -54 16 -87 35 -33 20 -63 33 -66 30 -3 -3 10 -21 28 -40 19 -19
29 -35 23 -35 -5 0 -33 27 -62 60 -29 33 -48 60 -43 60 5 0 41 -18 78 -40z"/>
<path d="M1013 2471 c-171 -113 -368 -242 -437 -286 -69 -44 -125 -82 -126
-85 0 -3 64 -34 142 -69 94 -42 145 -61 154 -55 7 5 86 97 175 204 90 107 219
262 287 343 68 81 123 149 121 151 -2 2 -144 -89 -316 -203z m-113 -187 c0
-16 -42 -71 -68 -91 -55 -41 -114 -43 -90 -3 18 28 5 34 -31 15 -36 -18 -44
-51 -10 -42 32 8 5 -19 -32 -32 -23 -8 -29 -7 -29 4 0 20 57 83 91 101 32 16
53 18 44 4 -10 -17 12 -11 26 7 22 26 99 55 99 37z"/>
<path d="M792 2227 c-27 -28 -28 -37 -3 -37 20 0 71 36 71 51 0 18 -47 9 -68
-14z"/>
<path d="M2435 2034 c-66 -30 -141 -64 -167 -76 -27 -11 -48 -26 -48 -33 0 -7
8 -32 19 -56 10 -24 42 -105 70 -179 64 -166 89 -229 101 -255 5 -11 43 -108
85 -215 90 -234 97 -250 101 -230 8 39 -22 1094 -31 1097 -6 2 -64 -22 -130
-53z m115 -198 c0 -8 -7 -16 -15 -20 -16 -6 -19 -43 -9 -120 6 -37 9 -44 20
-35 11 9 14 8 14 -4 0 -9 -12 -25 -27 -37 l-28 -22 -5 85 c-5 79 -17 119 -27
90 -3 -7 -12 -13 -21 -13 -23 0 -52 -30 -52 -55 0 -29 9 -36 31 -24 27 14 24
-7 -6 -42 -37 -44 -15 -80 27 -42 16 14 18 14 18 0 0 -20 -47 -57 -71 -57 -15
0 -19 7 -19 33 0 18 6 39 13 46 10 10 9 14 -5 22 -21 12 -23 53 -5 89 11 22
139 118 160 119 4 1 7 -5 7 -13z"/>
<path d="M426 2028 c-3 -18 -10 -226 -16 -463 -6 -236 -14 -463 -17 -502 -3
-41 -2 -73 3 -73 5 0 35 78 66 173 32 94 103 304 158 466 55 162 97 298 93
302 -9 8 -268 129 -277 129 -3 0 -7 -15 -10 -32z m65 -275 c7 -16 13 -23 16
-15 6 16 63 -16 63 -36 0 -7 -4 -11 -9 -8 -9 6 -21 -49 -21 -101 0 -18 5 -33
10 -33 6 0 10 -7 10 -15 0 -17 -2 -17 -23 -9 -13 5 -15 21 -10 95 5 75 4 89
-9 89 -11 0 -14 -7 -11 -23 6 -33 -15 -107 -33 -114 -14 -5 -44 13 -44 27 0 4
11 5 24 3 16 -3 25 1 30 13 3 9 5 17 4 18 -33 13 -43 27 -46 66 -2 23 -1 49 2
56 9 23 36 16 47 -13z"/>
<path d="M454 1736 c-7 -31 4 -68 19 -63 15 5 20 32 13 63 -8 31 -24 31 -32 0z"/>
<path d="M1258 1923 c-263 -2 -478 -6 -478 -9 0 -3 42 -77 94 -163 51 -86 188
-316 303 -511 256 -434 296 -500 303 -500 3 0 90 150 194 332 104 183 254 447
333 586 79 139 141 257 138 262 -4 6 -84 9 -208 8 -111 -2 -417 -4 -679 -5z
m52 -278 c0 -24 2 -25 65 -25 l65 0 0 -29 c0 -18 -21 -60 -56 -115 -54 -82
-58 -86 -93 -86 l-36 0 0 92 c0 89 -1 93 -22 96 -15 2 -23 10 -23 22 0 12 8
20 23 22 16 2 22 9 21 26 0 18 5 22 28 22 23 0 28 -4 28 -25z m380 5 c0 -16
-7 -20 -35 -20 l-35 0 0 -96 0 -96 35 4 c28 3 35 1 35 -13 0 -24 -8 -27 -74
-35 l-56 -7 0 122 0 121 -30 0 c-23 0 -30 4 -30 20 0 19 7 20 95 20 88 0 95
-1 95 -20z"/>
<path d="M1310 1515 c0 -36 3 -65 8 -65 9 1 82 106 82 119 0 6 -20 11 -45 11
l-45 0 0 -65z"/>
<path d="M2084 1718 c-53 -95 -137 -242 -186 -326 -48 -84 -88 -155 -88 -157
0 -2 -38 -69 -85 -150 -47 -80 -85 -148 -85 -150 0 -2 -27 -50 -60 -107 -63
-108 -72 -133 -42 -124 9 3 58 10 107 16 50 5 117 15 150 20 33 6 146 22 250
36 530 70 545 72 545 90 0 8 -7 31 -16 52 -8 20 -40 102 -71 182 -30 80 -61
159 -69 175 -7 17 -38 93 -67 170 -30 77 -80 204 -111 282 -31 79 -56 147 -56
153 0 31 -28 -8 -116 -162z m23 -483 c11 -8 40 -59 63 -114 42 -99 42 -99 25
-129 l-18 -30 -79 61 c-72 55 -81 60 -90 44 -9 -18 -11 -18 -29 -1 -15 14 -16
20 -7 31 10 12 7 18 -12 33 -24 18 -24 19 -6 39 17 19 21 20 36 6 23 -21 25
-20 57 30 15 25 30 45 33 45 3 0 15 -7 27 -15z"/>
<path d="M2076 1165 c-9 -13 -16 -29 -16 -34 0 -10 102 -92 107 -87 6 5 -60
146 -67 146 -4 0 -15 -11 -24 -25z"/>
<path d="M706 1773 c-19 -60 -94 -281 -165 -492 -122 -358 -143 -431 -123
-431 4 0 68 -9 142 -20 74 -11 229 -33 345 -50 246 -35 411 -59 478 -70 27 -4
50 -3 53 2 3 5 -54 109 -126 231 -73 122 -227 383 -343 580 -116 196 -214 357
-218 357 -4 0 -23 -48 -43 -107z m138 -454 c8 -12 12 -27 10 -33 -3 -7 7 -18
20 -24 37 -16 86 -89 86 -126 0 -88 -127 -148 -204 -97 -32 22 -88 99 -83 115
6 19 25 17 32 -3 11 -36 64 -81 95 -81 37 0 47 16 20 30 -57 31 -78 124 -36
158 23 18 24 20 8 36 -16 16 -16 18 2 32 26 19 32 18 50 -7z"/>
<path d="M829 1201 c-20 -16 -22 -23 -14 -47 12 -32 42 -42 74 -24 26 13 27
51 3 73 -24 22 -34 21 -63 -2z"/>
<path d="M496 791 c5 -5 35 -23 66 -40 31 -17 107 -60 169 -96 61 -36 113 -65
116 -65 2 0 57 -31 122 -69 66 -38 146 -84 178 -102 32 -17 115 -65 185 -105
141 -82 162 -89 154 -46 -3 15 -8 96 -12 180 -4 84 -10 167 -13 185 -7 32 -7
32 -91 44 -202 27 -530 74 -585 83 -96 16 -267 40 -284 40 -9 0 -11 -3 -5 -9z
m790 -206 c21 -21 23 -28 14 -46 -7 -11 -25 -28 -41 -37 -16 -10 -29 -22 -29
-29 0 -21 -23 -27 -35 -10 -7 10 -16 17 -20 17 -15 0 -65 42 -60 50 3 5 15 0
26 -11 12 -12 30 -19 46 -17 33 4 41 24 13 31 -29 7 -36 34 -15 57 25 28 71
25 101 -5z"/>
<path d="M1218 579 c-24 -13 -23 -36 1 -44 22 -7 61 13 61 31 0 7 -7 15 -16
18 -21 8 -26 7 -46 -5z"/>
<path d="M2365 784 c-49 -7 -119 -18 -155 -23 -36 -6 -204 -29 -375 -52 -170
-22 -316 -43 -324 -45 -11 -3 -12 -23 -7 -97 3 -50 9 -147 12 -214 4 -68 10
-123 15 -123 7 0 178 98 789 453 213 124 201 116 165 115 -16 0 -70 -7 -120
-14z m-380 -228 c14 9 28 14 31 11 6 -6 -294 -187 -310 -187 -6 0 4 10 22 22
l34 21 -36 35 c-33 34 -36 35 -54 19 -10 -9 -25 -17 -33 -17 -8 0 11 16 41 36
l55 35 37 -40 38 -40 45 25 c25 14 45 29 45 32 0 4 -13 22 -28 40 l-28 33 -26
-20 c-14 -12 -29 -21 -33 -21 -14 0 10 23 53 51 l47 29 37 -41 c36 -40 37 -40
63 -23z"/>
</g>
</svg>
