<?xml version="1.0" standalone="no"?>
<!DOCTYPE svg PUBLIC "-//W3C//DTD SVG 20010904//EN"
 "http://www.w3.org/TR/2001/REC-SVG-20010904/DTD/svg10.dtd">
<svg version="1.0" xmlns="http://www.w3.org/2000/svg"
 width="1151.000000pt" height="1151.000000pt" viewBox="0 0 1151.000000 1151.000000"
 preserveAspectRatio="xMidYMid meet">
<metadata>
Created by potrace 1.11, written by Peter Selinger 2001-2013
</metadata>
<g transform="translate(0.000000,1151.000000) scale(0.100000,-0.100000)"
fill="#000000" stroke="none">
<path d="M5592 11493 c-15 -14 -2238 -2672 -2910 -3481 -56 -67 -102 -129
-102 -136 0 -8 6 -16 14 -19 26 -10 6039 12 6049 22 7 7 4 19 -7 37 -10 14
-677 829 -1483 1810 l-1464 1784 -38 0 c-23 0 -47 -7 -59 -17z m752 -1738
c192 -50 325 -192 390 -417 32 -112 50 -279 42 -390 -26 -343 -194 -518 -494
-518 -160 0 -283 51 -382 157 -121 129 -179 298 -187 549 -6 175 10 279 58
381 55 116 160 206 278 239 65 17 225 17 295 -1z m-1063 -25 c91 -30 157 -82
192 -152 25 -47 29 -68 29 -131 0 -44 -7 -97 -17 -129 -46 -141 -122 -219
-484 -499 l-174 -134 288 -3 288 -2 -6 -38 c-3 -20 -11 -74 -18 -119 l-11 -83
-469 0 c-369 0 -469 3 -468 13 0 6 8 60 17 118 l17 107 299 233 c175 137 315
254 337 282 40 49 69 127 69 181 0 46 -37 113 -77 137 -83 52 -244 32 -422
-52 -46 -21 -86 -38 -87 -36 -4 3 34 259 39 263 6 7 181 47 256 59 126 21 318
14 402 -15z"/>
<path d="M6130 9533 c-74 -38 -107 -169 -96 -381 16 -302 59 -437 157 -488 15
-7 52 -14 82 -14 70 0 114 28 147 95 22 46 25 64 28 210 7 303 -38 500 -131
569 -39 28 -139 34 -187 9z"/>
<path d="M6216 11188 c10 -17 2588 -3152 2651 -3225 33 -38 63 -63 75 -63 17
0 1322 592 1481 671 31 16 57 35 57 42 0 8 -10 23 -22 34 -22 19 -4233 2553
-4244 2553 -3 0 -2 -5 2 -12z m2436 -2039 c283 -161 361 -199 417 -199 33 0
61 22 61 49 0 50 -109 168 -244 262 l-69 49 72 0 c87 0 80 5 249 -163 141
-139 212 -237 219 -301 6 -50 -10 -72 -61 -82 -84 -15 -205 35 -529 221 -104
59 -191 105 -194 102 -3 -3 53 -72 124 -154 70 -81 134 -156 142 -165 12 -17
9 -18 -50 -18 l-64 0 -230 267 c-126 146 -231 270 -233 274 -2 4 18 10 45 12
26 2 51 4 55 5 4 1 134 -71 290 -159z"/>
<path d="M4943 11069 c-5 -5 -892 -590 -1969 -1300 -1077 -709 -1960 -1293
-1961 -1297 -3 -10 1220 -562 1260 -569 26 -4 40 0 60 18 33 30 2637 3141
2637 3152 0 10 -14 9 -27 -4z m-1905 -1721 c31 -31 3 -107 -86 -233 -105 -149
-221 -251 -367 -323 -189 -93 -293 -99 -283 -15 2 18 2 33 0 33 -2 0 -32 -26
-67 -57 -104 -95 -249 -171 -346 -181 -101 -10 -98 58 12 219 103 152 222 257
369 327 78 37 105 45 155 46 l60 1 3 -38 3 -37 67 58 c85 74 145 115 228 154
112 53 225 73 252 46z"/>
<path d="M2713 9149 c-120 -38 -253 -157 -253 -225 0 -22 4 -24 45 -24 97 0
249 88 306 178 55 86 22 110 -98 71z"/>
<path d="M2255 8986 c-110 -35 -225 -137 -225 -201 0 -21 57 -20 120 4 95 36
195 134 188 184 -4 27 -28 31 -83 13z"/>
<path d="M9845 8081 c-407 -186 -751 -346 -763 -356 -17 -13 -23 -25 -20 -44
2 -14 382 -984 844 -2155 l839 -2129 3 299 c3 279 -92 4522 -104 4662 -5 59
-7 62 -32 61 -15 0 -360 -152 -767 -338z m744 -817 c1 -29 -6 -36 -74 -80 -69
-45 -75 -52 -75 -84 0 -63 32 -645 36 -649 3 -3 38 28 79 69 l73 73 4 -86 3
-86 -90 -81 c-49 -45 -118 -100 -152 -121 l-62 -39 -5 33 c-3 17 -12 185 -21
372 -8 187 -18 364 -21 393 l-5 52 -40 -22 c-30 -17 -39 -28 -39 -49 0 -25 -3
-27 -57 -31 -73 -5 -142 -39 -194 -96 -52 -56 -69 -98 -69 -169 0 -82 19 -107
76 -100 23 2 65 18 93 36 45 27 51 29 51 12 0 -10 3 -45 6 -77 l6 -59 -71 -49
c-104 -71 -146 -155 -121 -245 23 -88 113 -61 233 68 l57 62 0 -93 0 -94 -42
-40 c-110 -105 -241 -184 -304 -184 -128 0 -152 257 -39 416 40 57 42 64 15
57 -36 -9 -78 16 -99 61 -44 90 -33 255 24 371 53 108 172 219 305 284 41 21
172 99 290 174 l215 136 7 -52 c3 -29 6 -66 7 -83z"/>
<path d="M896 8138 c-16 -375 -146 -4561 -144 -4626 l3 -72 718 2108 c394
1160 717 2120 717 2133 0 19 -9 30 -37 43 -55 27 -1244 566 -1248 566 -1 0 -6
-69 -9 -152z m215 -1122 c45 -30 94 -105 110 -168 7 -27 17 -48 21 -48 4 0 8
25 8 55 0 30 2 55 5 55 15 0 310 -189 309 -198 -1 -7 -2 -41 -2 -77 l-2 -65
-51 31 c-27 17 -52 29 -55 26 -3 -2 -14 -112 -24 -243 -10 -132 -22 -264 -25
-296 l-6 -56 51 -7 c30 -4 54 -13 57 -21 3 -8 2 -43 -1 -78 l-7 -63 -52 10
c-70 14 -157 69 -157 100 0 29 48 629 54 684 5 40 4 42 -39 67 -24 14 -45 26
-47 26 -2 0 -4 -78 -4 -172 -1 -202 -17 -300 -66 -398 -37 -72 -84 -108 -129
-97 -37 9 -117 66 -145 103 -24 30 -25 38 -18 103 l7 71 34 -45 c81 -106 151
-97 187 24 24 82 22 92 -14 78 -23 -9 -36 -8 -64 5 -96 46 -153 218 -134 407
17 180 98 256 199 187z"/>
<path d="M1034 6858 c-13 -25 -18 -59 -18 -140 -1 -93 2 -110 20 -135 15 -19
30 -28 50 -28 44 0 58 39 59 167 0 93 -3 110 -21 135 -12 15 -33 29 -47 31
-21 3 -29 -3 -43 -30z"/>
<path d="M4170 7650 c-1491 -4 -1655 -7 -1658 -21 -3 -14 3102 -5264 3135
-5301 23 -26 39 -22 66 15 47 63 3001 5271 3001 5291 l1 21 -1445 0 c-795 0
-2190 -2 -3100 -5z m770 -1220 l0 -120 290 0 290 0 0 -139 0 -140 -262 -390
-263 -391 -182 0 -183 0 0 415 0 415 -95 0 -95 0 0 115 0 115 95 0 95 0 0 120
0 120 155 0 155 0 0 -120z m1700 10 l0 -110 -150 0 -150 0 0 -430 c0 -236 2
-430 5 -430 2 0 68 14 145 30 77 17 145 30 150 30 6 0 10 -45 10 -108 l0 -107
-162 -33 c-140 -28 -183 -32 -310 -32 l-148 0 0 540 0 540 -150 0 -150 0 0
110 0 110 455 0 455 0 0 -110z"/>
<path d="M4940 5798 c0 -241 2 -280 14 -268 18 20 366 536 366 544 0 3 -85 6
-190 6 l-190 0 0 -282z"/>
<path d="M8878 7498 c-8 -18 -691 -1222 -1517 -2675 -825 -1454 -1501 -2650
-1501 -2658 0 -9 6 -18 13 -20 6 -3 1092 144 2412 325 1694 234 2407 336 2424
346 19 13 23 22 18 53 -3 20 -407 1055 -897 2301 -491 1246 -899 2286 -907
2313 -8 26 -18 47 -22 47 -4 0 -14 -15 -23 -32z m-319 -2950 l94 -73 193 -454
194 -455 -93 -137 c-50 -76 -97 -137 -103 -135 -6 2 -164 121 -352 265 -187
144 -343 261 -345 261 -2 0 -25 -32 -51 -70 l-46 -70 -100 76 -100 77 43 61
c24 34 46 66 50 72 4 6 -36 44 -94 88 -64 49 -97 81 -93 89 29 49 147 217 154
217 4 0 48 -31 98 -70 50 -38 94 -70 99 -70 5 0 76 99 158 220 l148 219 26
-19 c14 -10 68 -52 120 -92z"/>
<path d="M8406 4205 c-54 -80 -97 -147 -95 -149 138 -109 455 -349 465 -353
17 -6 30 -40 -131 340 -71 169 -132 307 -136 307 -3 0 -49 -65 -103 -145z"/>
<path d="M2340 7476 c0 -1 -346 -1023 -769 -2269 -424 -1246 -773 -2281 -776
-2300 -9 -47 0 -72 33 -86 34 -16 4564 -673 4612 -669 32 3 35 6 35 33 0 22
-415 729 -1530 2610 -841 1419 -1542 2604 -1558 2633 -16 28 -33 52 -38 52 -5
0 -9 -2 -9 -4z m454 -2542 c54 -75 95 -139 89 -143 -5 -3 -26 -17 -46 -29 -36
-23 -41 -42 -11 -42 8 0 45 -15 82 -34 247 -124 451 -454 413 -669 -6 -34 -26
-94 -46 -133 -62 -127 -238 -269 -405 -326 -51 -18 -87 -23 -170 -23 -123 0
-208 22 -309 82 -128 75 -294 270 -385 451 -64 127 -66 112 29 176 l84 55 17
-52 c64 -197 181 -351 310 -409 65 -29 168 -30 242 -3 28 10 52 21 52 24 0 4
-21 17 -47 31 -60 31 -177 147 -227 223 -132 202 -132 410 1 527 25 22 63 47
84 57 22 9 39 20 39 23 0 4 -22 36 -48 71 -26 35 -58 78 -70 96 l-22 31 117
76 c65 42 120 76 123 76 3 -1 50 -62 104 -136z"/>
<path d="M2820 4441 c-69 -21 -141 -75 -167 -124 -8 -17 -15 -52 -15 -78 0
-83 74 -182 158 -209 72 -24 193 25 255 103 100 128 -72 356 -231 308z"/>
<path d="M1176 2542 c8 -8 4386 -2492 4441 -2521 12 -6 31 -11 42 -11 18 0 21
6 21 48 -1 26 -22 448 -49 939 -34 624 -52 897 -60 907 -7 8 -24 17 -39 21
-44 9 -4324 625 -4346 625 -12 0 -16 -4 -10 -8z m3538 -870 c110 -52 196 -148
196 -222 0 -37 -33 -102 -75 -149 -50 -55 -171 -135 -245 -162 -33 -12 -60
-26 -60 -30 0 -5 3 -9 8 -9 4 -1 20 -11 35 -24 l28 -23 -80 -52 c-50 -33 -85
-50 -93 -45 -7 4 -39 28 -71 52 l-59 44 28 19 c32 20 27 24 -48 34 -77 10
-180 68 -260 147 l-71 70 59 38 58 39 33 -49 c61 -90 134 -130 240 -130 53 0
81 6 123 26 l55 27 -50 11 c-66 16 -112 41 -158 85 -90 85 -91 172 -2 249 77
68 152 93 262 88 65 -3 96 -10 147 -34z"/>
<path d="M4573 1581 c-71 -18 -143 -81 -143 -126 0 -49 59 -95 122 -95 71 0
188 82 188 131 0 65 -85 110 -167 90z"/>
<path d="M8067 2235 c-1694 -235 -2252 -315 -2263 -327 -14 -14 -11 -101 30
-874 25 -473 48 -898 52 -947 l6 -87 39 0 c35 0 333 170 2227 1266 1203 696
2191 1270 2197 1275 5 5 -1 9 -15 8 -14 -1 -1037 -142 -2273 -314z m-372 -656
c88 -98 163 -179 166 -179 4 0 63 33 131 74 l123 75 33 -36 c17 -20 31 -37 30
-38 -3 -2 -1426 -844 -1441 -852 -9 -5 -67 45 -67 58 0 4 55 39 123 79 67 40
124 74 126 76 7 7 -264 294 -275 290 -6 -2 -61 -41 -122 -86 -61 -45 -116 -79
-121 -76 -6 4 -19 20 -31 35 l-20 29 107 79 c59 43 173 117 252 164 l144 87
160 -177 c88 -97 167 -176 176 -176 18 0 401 225 401 236 0 8 -249 283 -260
287 -5 2 -61 -35 -126 -82 l-118 -86 -28 27 c-15 15 -28 32 -28 37 1 16 228
177 370 261 69 41 127 74 130 74 3 0 77 -81 165 -180z"/>
</g>
</svg>
