<?xml version="1.0" standalone="no"?>
<!DOCTYPE svg PUBLIC "-//W3C//DTD SVG 20010904//EN"
 "http://www.w3.org/TR/2001/REC-SVG-20010904/DTD/svg10.dtd">
<svg version="1.0" xmlns="http://www.w3.org/2000/svg"
 width="250.000000pt" height="250.000000pt" viewBox="0 0 250.000000 250.000000"
 preserveAspectRatio="xMidYMid meet">
<metadata>
Created by potrace 1.11, written by Peter Selinger 2001-2013
</metadata>
<g transform="translate(0.000000,250.000000) scale(0.100000,-0.100000)"
fill="#000000" stroke="none">
<path d="M1170 2434 c-30 -37 -59 -72 -65 -78 -5 -6 -77 -92 -160 -191 -82
-99 -157 -189 -166 -200 -10 -11 -55 -65 -100 -120 -46 -55 -89 -106 -97 -114
-7 -7 -11 -16 -8 -19 6 -5 1298 -3 1304 2 2 2 -88 115 -200 251 -112 137 -255
311 -318 388 -63 78 -120 142 -126 144 -5 2 -35 -27 -64 -63z m-6 -325 c14 -7
29 -24 34 -39 14 -40 -9 -80 -79 -136 -32 -26 -59 -48 -59 -48 0 -1 27 -1 60
-1 59 1 60 0 57 -24 -4 -26 -5 -26 -106 -29 l-102 -3 3 28 c2 19 22 42 72 83
74 60 94 93 74 117 -12 15 -46 14 -95 -2 -19 -6 -22 -4 -19 21 2 20 10 31 27
35 39 11 106 10 133 -2z m264 -14 c67 -56 67 -203 0 -249 -73 -52 -176 18
-180 121 -3 76 2 95 31 124 40 39 105 41 149 4z"/>
<path d="M1323 2043 c-11 -32 1 -128 18 -149 19 -23 52 -13 60 18 9 35 3 112
-11 138 -16 30 -56 26 -67 -7z"/>
<path d="M1370 2416 c0 -2 6 -11 13 -18 7 -7 42 -49 78 -93 351 -428 482 -585
490 -585 11 0 311 139 321 149 7 6 -111 81 -298 191 -24 14 -166 99 -316 189
-316 190 -288 174 -288 167z m612 -419 c52 -46 70 -97 34 -97 -7 0 -44 16 -82
36 l-69 36 34 -36 c29 -30 32 -36 15 -35 -25 0 -120 113 -99 117 8 2 42 -13
76 -33 34 -20 71 -35 82 -33 18 3 16 7 -16 40 -40 39 -20 44 25 5z"/>
<path d="M1040 2375 c-19 -13 -192 -127 -385 -253 -430 -283 -432 -285 -414
-290 8 -3 68 -29 133 -59 65 -30 125 -53 131 -51 7 2 63 64 125 138 61 74 122
146 133 160 12 14 80 95 151 180 71 85 138 165 149 178 25 27 21 27 -23 -3z
m-376 -367 c-16 -51 -125 -131 -154 -113 -5 3 -26 -4 -47 -15 -70 -37 -85 -16
-32 45 38 43 84 69 110 62 11 -3 22 -1 25 5 9 14 86 48 96 41 5 -2 6 -14 2
-25z"/>
<path d="M585 1980 c-26 -10 -49 -37 -37 -44 11 -6 72 30 72 44 0 12 -7 12
-35 0z"/>
<path d="M467 1932 c-22 -25 -21 -31 3 -25 25 7 48 43 27 43 -8 0 -21 -8 -30
-18z"/>
<path d="M2255 1805 c-28 -13 -99 -47 -160 -74 -60 -28 -111 -56 -113 -64 -1
-7 25 -83 58 -168 34 -84 83 -210 110 -279 27 -69 81 -204 120 -300 l70 -175
-6 305 c-4 168 -8 350 -9 405 -1 55 -4 160 -5 233 -2 73 -6 134 -9 137 -4 2
-29 -7 -56 -20z m38 -244 c-15 -13 -19 -27 -17 -66 4 -92 3 -88 18 -76 11 9
15 8 20 -4 4 -11 -6 -27 -26 -45 -18 -16 -34 -28 -36 -26 -5 6 -10 62 -11 129
-1 37 -5 56 -11 52 -6 -4 -8 -10 -6 -14 3 -4 -5 -8 -16 -8 -27 -2 -58 -32 -58
-56 0 -15 5 -18 25 -15 31 6 34 -20 5 -45 -21 -18 -26 -42 -10 -52 5 -3 18 3
29 14 11 11 22 17 24 13 10 -16 -14 -52 -44 -68 -31 -15 -33 -15 -46 2 -15 20
-15 30 -4 59 5 13 3 28 -6 42 -22 33 1 101 42 126 17 11 53 33 80 51 41 27 52
30 59 18 6 -10 3 -20 -11 -31z"/>
<path d="M200 1693 c-1 -54 -3 -123 -4 -153 -3 -51 -2 -53 12 -32 17 27 36 28
54 5 7 -10 20 -19 28 -21 8 -2 25 -10 38 -18 25 -16 31 -50 7 -40 -11 4 -15
-3 -16 -27 -1 -18 -2 -45 -3 -62 -1 -16 5 -35 13 -41 19 -15 6 -33 -19 -27
-25 7 -26 21 -15 130 3 23 0 45 -5 48 -6 4 -10 -9 -10 -33 0 -45 -18 -102 -32
-102 -20 0 -48 21 -48 36 0 11 6 13 19 9 29 -9 36 13 11 33 -14 11 -23 30 -23
50 -1 18 -5 32 -9 32 -5 0 -8 -44 -9 -97 0 -54 -2 -136 -4 -183 -2 -47 -6
-164 -9 -260 -6 -208 -24 -241 156 285 136 397 152 445 146 449 -13 11 -253
116 -263 116 -10 0 -14 -25 -15 -97z"/>
<path d="M899 1660 l-347 -5 208 -350 c114 -192 268 -453 343 -579 132 -223
135 -228 150 -205 8 13 121 211 250 439 129 228 244 431 255 450 11 19 47 83
80 143 55 98 58 107 38 108 -87 4 -694 3 -977 -1z m174 -239 c4 -1 7 -12 7
-26 0 -24 2 -25 64 -25 l65 0 -3 -33 c-2 -19 -26 -68 -57 -115 -53 -81 -54
-82 -96 -82 l-43 0 0 90 c0 83 -1 90 -20 90 -15 0 -20 7 -20 25 0 18 5 25 20
25 15 0 20 7 20 28 0 28 3 29 63 23z m367 0 c6 -1 10 -12 10 -26 0 -15 -5 -25
-12 -24 -52 6 -53 4 -54 -91 l0 -89 33 5 c30 5 33 3 33 -19 0 -27 -28 -37 -99
-37 l-36 0 0 108 c1 59 0 112 -2 118 -2 6 -17 10 -34 8 -26 -3 -29 -1 -29 24
l0 27 90 -1 c50 -1 95 -2 100 -3z"/>
<path d="M1080 1265 c0 -30 2 -55 4 -55 4 0 46 59 70 98 5 9 -4 12 -33 12
l-41 0 0 -55z"/>
<path d="M1745 1293 c-104 -185 -252 -444 -327 -577 -75 -132 -132 -243 -127
-244 8 -3 202 20 284 34 17 3 44 7 60 9 17 1 84 10 150 19 66 10 134 19 150
21 17 3 77 11 135 19 58 9 125 18 150 21 82 10 110 17 110 29 0 12 -380 987
-389 998 -3 3 -91 -144 -196 -329z m132 -315 c6 -7 30 -55 52 -107 l41 -94
-21 -33 -21 -34 -76 59 c-63 50 -77 57 -86 45 -16 -21 -60 10 -47 33 6 12 3
21 -11 33 -20 16 -20 17 -3 43 16 25 18 25 40 11 22 -15 24 -14 55 30 32 47
48 50 77 14z"/>
<path d="M1832 913 c-17 -24 -19 -33 -9 -40 6 -5 29 -22 50 -38 43 -31 43 -35
0 64 l-19 44 -22 -30z"/>
<path d="M448 1422 c-37 -108 -112 -331 -168 -495 -55 -164 -98 -301 -96 -306
3 -5 25 -12 49 -15 24 -4 55 -8 68 -10 37 -6 122 -18 146 -21 13 -2 42 -6 65
-10 125 -19 586 -86 642 -92 l49 -6 -21 34 c-11 19 -163 275 -337 569 -174
294 -320 538 -324 542 -3 4 -37 -81 -73 -190z m166 -347 c9 -13 16 -29 16 -35
0 -6 16 -24 35 -41 38 -33 65 -81 65 -113 0 -31 -35 -83 -68 -100 -80 -42
-167 -5 -215 90 -15 29 -15 33 2 48 18 16 19 16 25 -7 9 -38 60 -87 90 -87 30
0 33 11 8 27 -24 14 -52 73 -52 107 0 15 10 32 24 43 21 16 22 20 9 39 -13 20
-12 24 9 38 30 21 33 20 52 -9z"/>
<path d="M599 949 c-25 -25 -21 -50 11 -66 21 -10 28 -9 47 9 18 17 20 24 11
43 -14 32 -45 38 -69 14z"/>
<path d="M230 1461 c0 -31 19 -55 21 -27 1 9 2 24 3 33 0 9 -5 18 -11 21 -9 2
-13 -7 -13 -27z"/>
<path d="M295 536 c18 -12 760 -435 893 -508 l53 -29 -5 73 c-3 40 -8 131 -11
203 -4 72 -10 133 -13 137 -6 5 -171 31 -347 54 -27 3 -52 7 -55 9 -3 2 -34 6
-70 10 -36 3 -72 8 -80 10 -8 2 -35 7 -60 10 -25 3 -103 15 -174 26 -153 23
-156 23 -131 5z m753 -182 c33 -23 26 -63 -15 -89 -17 -11 -34 -28 -36 -38 -6
-21 -54 -20 -49 1 1 6 -5 12 -13 12 -23 0 -65 30 -65 46 0 8 7 14 15 14 8 0
15 -4 15 -8 0 -15 44 -29 65 -22 19 7 19 7 -3 14 -12 4 -27 16 -32 26 -25 46
67 80 118 44z"/>
<path d="M983 333 c-7 -2 -13 -11 -13 -19 0 -22 54 -14 58 9 3 17 -17 22 -45
10z"/>
<path d="M2115 534 c-44 -7 -105 -16 -135 -19 -30 -3 -62 -7 -70 -10 -8 -2
-37 -6 -65 -10 -27 -3 -147 -19 -265 -36 -118 -16 -235 -32 -260 -35 -48 -7
-60 -17 -55 -45 2 -9 7 -82 10 -161 4 -78 8 -157 9 -175 1 -18 4 -35 8 -38 4
-4 136 69 295 161 158 92 369 215 468 272 99 58 182 106 184 108 8 7 -43 2
-124 -12z m-436 -191 c32 -38 32 -38 61 -21 35 20 51 5 18 -16 -106 -68 -294
-173 -296 -165 -2 5 7 18 20 29 l23 19 -27 27 c-26 26 -28 27 -52 11 -29 -20
-36 -21 -36 -7 0 6 23 25 52 43 l52 34 37 -40 37 -40 38 23 c22 13 41 25 43
27 3 2 -8 17 -24 33 -27 28 -30 29 -52 14 -14 -8 -29 -14 -36 -11 -12 4 81 76
99 77 6 0 26 -17 43 -37z"/>
</g>
</svg>
